<svg width="32" height="32" viewBox="0 0 32 32" fill="none" xmlns="http://www.w3.org/2000/svg">
<path fill-rule="evenodd" clip-rule="evenodd" d="M29.396 2.58C27.75 0.938 25.585 0 23.449 0C21.649 0 19.99 0.668 18.78 1.877L13.913 6.781C13.898 6.795 13.881 6.805 13.866 6.819C13.858 6.827 13.854 6.838 13.846 6.846L13.848 6.848L3.518 17.256C3.042 17.728 2.696 18.319 2.505 18.961L0.156 27.469C0.153 27.492 0 28.161 0 28.5C0 30.433 1.569 32 3.505 32C3.89 32 4.635 31.817 4.662 31.813L13.14 29.584C13.783 29.393 14.369 29.045 14.845 28.568L30.107 13.186C32.884 10.406 32.571 5.75 29.396 2.58ZM16.015 23.796C15.933 22.893 15.678 22.008 15.296 21.168L24.75 11.715C25.328 13.541 25.032 15.451 23.765 16.719C23.757 16.727 23.747 16.731 23.739 16.739L23.752 16.752L16.024 24.541C16.025 24.293 16.037 24.049 16.015 23.796ZM14.794 20.256C14.421 19.643 13.997 19.052 13.472 18.528C12.86 17.916 12.159 17.438 11.428 17.035L20.96 7.504C21.707 7.836 22.425 8.309 23.058 8.941C23.598 9.481 24.017 10.084 24.338 10.712L14.794 20.256ZM10.486 16.563C9.561 16.19 8.59 15.977 7.618 15.964L15.321 8.202C16.5 7.052 18.218 6.721 19.909 7.141L10.486 16.563ZM4.168 29.873C4.059 29.899 3.72 29.985 3.489 30C2.667 29.991 2 29.322 2 28.5C2.012 28.333 2.079 28.044 2.102 27.937L3.154 24.123C4.297 24.092 5.527 24.537 6.494 25.506C7.477 26.487 7.939 27.741 7.888 28.897L4.168 29.873ZM8.874 28.637C8.85 27.296 8.304 25.9 7.202 24.8C6.16 23.756 4.797 23.154 3.437 23.101L4.433 19.493C4.505 19.253 4.647 19.017 4.823 18.809C6.829 17.373 9.914 17.797 12.058 19.942C14.324 22.208 14.675 25.528 12.929 27.51C12.813 27.57 12.695 27.629 12.569 27.667L8.874 28.637ZM28.692 11.773L27.008 13.47C27.008 13.244 27.035 13.027 27.015 12.796C26.839 10.861 25.936 8.99 24.472 7.527C22.843 5.898 20.682 4.962 18.543 4.956L20.2 3.286C21.027 2.459 22.184 2 23.449 2C25.06 2 26.712 2.728 27.982 3.995C29.176 5.186 29.888 6.666 29.988 8.163C30.082 9.561 29.622 10.842 28.692 11.773Z" fill="#666D89"/>
</svg>
