<svg width="32" height="28" viewBox="0 0 32 28" fill="none" xmlns="http://www.w3.org/2000/svg">
<path fill-rule="evenodd" clip-rule="evenodd" d="M16 24C14.943 24 13.913 23.918 12.914 23.772C12.23 24.605 9.286 27.476 6.161 27.988C6.165 27.975 6 28 5.906 28C5.405 28 5 27.595 5 27.094C5 26.967 5.027 26.846 5.074 26.736H5.072C5.661 25.723 7 23.793 7 22C7 21.971 7.008 21.953 7.008 21.926C2.779 19.766 0 16.127 0 12C0 5.373 7.163 0 16 0C24.836 0 32 5.373 32 12C32 18.627 24.836 24 16 24ZM16 2C8.28 2 2 6.486 2 12C2 15.207 4.212 18.252 7.918 20.145C8.587 20.486 9.008 21.175 9.008 21.926C9.008 21.982 9.005 22.046 8.999 22.11C8.979 23.144 8.673 24.148 8.283 25.042C9.723 24.186 10.94 23.024 11.368 22.503C11.751 22.036 12.32 21.771 12.914 21.771C13.01 21.771 13.107 21.778 13.204 21.793C14.143 21.931 15.083 22 16 22C23.72 22 30 17.514 30 12C30 6.486 23.72 2 16 2ZM16 6C10.673 6 6 8.804 6 12C6 12.276 5.776 12.5 5.5 12.5C5.224 12.5 5 12.276 5 12C5 8.206 10.037 5 16 5C16.276 5 16.5 5.224 16.5 5.5C16.5 5.777 16.276 6 16 6Z" fill="#666D89"/>
</svg>
