<svg width="22" height="32" viewBox="0 0 22 32" fill="none" xmlns="http://www.w3.org/2000/svg">
<path fill-rule="evenodd" clip-rule="evenodd" d="M19 31.999L3 32.001C1.343 32.001 0 30.658 0 29.001V3.001C0 1.343 1.343 0 3 0H19C20.657 0 22 1.342 22 3V29C22 30.657 20.657 31.999 19 31.999ZM20 3C20 2.448 19.552 2 19 2L3 2.001C2.448 2.001 2 2.449 2 3.001V5.001L20 5V3ZM20 6H2V25.997L20 25.996V6ZM20 26.996L2 26.997V29.001C2 29.552 2.448 30.001 3 30.001L19 29.999C19.552 29.999 20 29.551 20 29V26.996ZM11.5 28.996H10.5C10.224 28.996 10 28.772 10 28.496C10 28.219 10.224 27.996 10.5 27.996H11.5C11.776 27.996 12 28.219 12 28.496C12 28.772 11.776 28.996 11.5 28.996ZM9.5 3H12.5C12.776 3 13 3.223 13 3.5C13 3.776 12.776 4 12.5 4H9.5C9.224 4 9 3.776 9 3.5C9 3.223 9.224 3 9.5 3Z" fill="#666D89"/>
</svg>
