<svg width="22" height="32" viewBox="0 0 22 32" fill="none" xmlns="http://www.w3.org/2000/svg">
<path fill-rule="evenodd" clip-rule="evenodd" d="M16.969 23.078C14.965 28.666 15.25 32 11 32C6.813 32 7.034 28.651 5.031 23.055C3.689 19.303 0 15.031 0 11C0 4.925 4.925 0 11 0C17.075 0 22 4.925 22 11C22 15 18.316 19.319 16.969 23.078ZM11 30C12.181 30 12.628 29.873 13.241 28.22L9.003 28.75C9.521 29.884 9.987 30 11 30ZM8.036 25.903C8.267 26.684 8.457 27.283 8.634 27.796L13.593 27.176C13.703 26.821 13.821 26.431 13.952 25.982C14.033 25.704 14.128 25.394 14.216 25.098L8.027 25.871C8.029 25.881 8.033 25.893 8.036 25.903ZM7.736 24.908L14.535 24.059C14.642 23.719 14.765 23.36 14.887 23H7.121C7.35 23.672 7.555 24.307 7.736 24.908ZM11 2C6.037 2 2 6.037 2 11C2 13.033 3.349 15.448 4.653 17.783C5.243 18.84 5.841 19.921 6.339 21H15.672C16.167 19.926 16.76 18.849 17.345 17.795C18.65 15.446 20 13.018 20 11C20 6.037 15.963 2 11 2ZM11 6C8.243 6 6 8.243 6 11C6 11.276 5.776 11.5 5.5 11.5C5.224 11.5 5 11.276 5 11C5 7.691 7.691 5 11 5C11.276 5 11.5 5.224 11.5 5.5C11.5 5.777 11.276 6 11 6Z" fill="#666D89"/>
</svg>
