<svg width="32" height="32" viewBox="0 0 32 32" fill="none" xmlns="http://www.w3.org/2000/svg">
<path fill-rule="evenodd" clip-rule="evenodd" d="M31.8811 11.9298C31.6041 11.105 30.8931 10.5012 30.0381 10.3701L21.7121 9.09213L18.0921 1.33574C17.7121 0.52129 16.8961 0 16.0001 0C15.1041 0 14.2891 0.52129 13.9081 1.33574L10.2891 9.09213L1.96214 10.3701C1.10614 10.5012 0.39514 11.105 0.12014 11.9298C-0.15586 12.7556 0.0521396 13.6661 0.65714 14.2885L6.75914 20.5781L5.34414 29.3017C5.20014 30.1791 5.56914 31.0617 6.29214 31.5757C6.68914 31.8565 7.15614 32 7.62314 32C8.00714 32 8.39114 31.903 8.74114 31.711L16.0001 27.6769L23.2601 31.711C23.6091 31.903 23.9941 32 24.3771 32C24.8441 32 25.3101 31.8565 25.7091 31.5757C26.4311 31.0617 26.8001 30.1791 26.6571 29.3017L25.2411 20.5781L31.3441 14.2885C31.9481 13.6661 32.1551 12.7556 31.8811 11.9298ZM23.5881 18.9554C23.0761 19.4828 22.8441 20.224 22.9621 20.9517L24.3771 29.6764L17.1181 25.6434C16.7691 25.4493 16.3851 25.3533 16.0001 25.3533C15.6161 25.3533 15.2311 25.4493 14.8831 25.6434L7.62314 29.6764L9.03914 20.9517C9.15714 20.224 8.92514 19.4828 8.41314 18.9554L2.31114 12.6679L10.6371 11.3868C11.3981 11.2702 12.0531 10.7799 12.3811 10.079L16.0001 2.32361L19.6201 10.079C19.9471 10.7799 20.6011 11.2702 21.3621 11.3868L29.6891 12.6679L23.5881 18.9554Z" fill="#666D89"/>
</svg>
