<svg width="32" height="28" viewBox="0 0 32 28" fill="none" xmlns="http://www.w3.org/2000/svg">
<path fill-rule="evenodd" clip-rule="evenodd" d="M29.1898 16.1788C29.0688 16.2979 18.1368 27.1222 18.1368 27.1222C16.9548 28.2926 15.0418 28.2926 13.8588 27.1222C13.8588 27.1222 3.87575 17.2371 2.80575 16.1788C-0.93525 12.4733 -0.93525 6.46692 2.80575 2.76239C6.43675 -0.833006 12.2378 -0.908098 15.9978 2.47504C19.7588 -0.908098 25.5598 -0.833006 29.1898 2.76239C32.9308 6.46692 32.9308 12.4733 29.1898 16.1788ZM27.7628 4.17412C24.9208 1.35867 20.3468 1.25955 17.3538 3.95184L15.9978 5.17234L14.6418 3.95184C11.6488 1.25955 7.07675 1.35867 4.23275 4.17412C1.28275 7.09469 1.28275 11.8455 4.23275 14.7661L15.2858 25.7094C15.6768 26.0989 16.3178 26.0989 16.7108 25.7094L27.7628 14.7661C30.7138 11.8455 30.7138 7.09469 27.7628 4.17412ZM9.24975 5.99935C7.45575 5.99935 5.99975 7.45513 5.99975 9.24832V9.24932C5.99975 9.52566 5.77575 9.74993 5.49975 9.74993C5.22275 9.74993 4.99975 9.52566 4.99975 9.24932C4.99975 6.90345 6.90075 5.00213 9.24575 5.00013C9.24775 5.00013 9.24775 4.99913 9.24975 4.99913C9.52575 4.99913 9.74975 5.2234 9.74975 5.49974C9.74975 5.77608 9.52575 5.99935 9.24975 5.99935Z" fill="#666D89"/>
</svg>
