<svg width="14" height="15" viewBox="0 0 14 15" fill="none" xmlns="http://www.w3.org/2000/svg">
<path d="M11.6565 5.72432V3.33795H10.1722V5.72432H7.82873V7.23568H10.1722V9.62205H11.6565V7.23568H14V5.72432H11.6565ZM5.60365 2.97539C5.95611 4.23745 5.42382 5.55727 4.57594 5.80052C4.4786 5.82836 4.37752 5.84268 4.27566 5.84268C3.4987 5.84268 2.72878 5.0423 2.44381 3.93995C2.28461 3.32061 2.29742 2.77923 2.48021 2.25868C2.65988 1.74657 2.98235 1.4007 3.38856 1.28441C3.48621 1.25625 3.5876 1.24193 3.68915 1.24193C4.62718 1.24193 5.23009 1.63791 5.60365 2.97539ZM6.54168 10.9102C6.61026 12.0291 5.67051 12.8545 4.25941 12.9591C2.82612 13.0657 1.64624 12.4087 1.57749 11.2912C1.54422 10.7545 1.77622 10.228 2.22993 9.80914C2.69035 9.38452 3.32232 9.12266 4.0099 9.07111C4.09099 9.06586 4.1716 9.06252 4.25175 9.06252C5.57834 9.06252 6.47668 9.85655 6.54168 10.9102ZM0.742736 3.74093C0.742736 4.92902 1.13238 5.78684 1.90074 6.29084C2.52959 6.70336 3.26014 6.76509 3.63947 6.76509C3.73149 6.76509 3.80539 6.76159 3.85695 6.75809C3.85695 6.75809 3.73649 7.55609 4.31768 8.34598L4.29144 8.34582C3.28451 8.34582 0 8.55996 0 11.3094C0 14.107 3.01657 14.249 3.62166 14.249C3.669 14.249 3.69681 14.2481 3.69681 14.2481C3.70353 14.2483 3.7468 14.25 3.82039 14.25C4.20879 14.25 5.21275 14.2002 6.145 13.7388C7.35425 13.141 7.96793 12.1013 7.96793 10.6485C7.96793 9.24452 7.03319 8.40898 6.35091 7.79823C5.93439 7.42627 5.57459 7.10491 5.57459 6.79246C5.57459 6.47411 5.83737 6.23484 6.16968 5.93177C6.70791 5.44161 7.21504 4.744 7.21504 3.4253C7.21504 2.266 7.0674 1.48789 6.15812 0.994228C6.25295 0.94475 6.58808 0.908636 6.754 0.885409C7.24676 0.816841 7.96793 0.739046 7.96793 0.329227V0.25H4.37533C4.3394 0.250955 0.742736 0.386659 0.742736 3.74093Z" fill="#666D89"/>
</svg>
