<svg width="14" height="13" viewBox="0 0 14 13" fill="none" xmlns="http://www.w3.org/2000/svg">
<path d="M14 1.67039C13.4846 1.91146 12.9313 2.0742 12.3501 2.14755C12.9435 1.77263 13.3988 1.17879 13.6133 0.471485C13.0582 0.818478 12.4434 1.07078 11.7894 1.20656C11.2653 0.617697 10.5187 0.25 9.69272 0.25C8.10646 0.25 6.82044 1.60636 6.82044 3.27921C6.82044 3.51675 6.8457 3.74786 6.89485 3.96951C4.50785 3.84336 2.39081 2.63722 0.974522 0.804355C0.727239 1.25198 0.585565 1.77231 0.585565 2.32747C0.585565 3.3784 1.09261 4.30543 1.86322 4.84887C1.3927 4.83314 0.949566 4.69704 0.562283 4.47009C0.561979 4.48261 0.561979 4.49529 0.561979 4.50813C0.561979 5.97587 1.55233 7.2003 2.86604 7.47844C2.62531 7.54778 2.37148 7.58501 2.10928 7.58501C1.92439 7.58501 1.74467 7.56591 1.56907 7.5306C1.93459 8.73401 2.9957 9.61 4.2522 9.63423C3.269 10.447 2.03091 10.9312 0.685087 10.9312C0.453326 10.9312 0.224761 10.9168 0 10.8885C1.27096 11.7483 2.78037 12.25 4.403 12.25C9.68587 12.25 12.5752 7.63364 12.5752 3.63038C12.5752 3.49941 12.5725 3.36861 12.5668 3.23844C13.1281 2.81152 13.6149 2.27803 14 1.67039Z" fill="#666D89"/>
</svg>
