<?xml-stylesheet type="text/css" href="footer.scss" ?>
<svg width="14" height="15" viewBox="0 0 14 15"  xmlns="http://www.w3.org/2000/svg">
<path d="M0.0787113 4.48402H3.07192V14.25H0.0787113V4.48402ZM3.17008 1.76788C3.17008 2.60642 2.55967 3.28561 1.55525 3.28561C0.610402 3.28561 0 2.60642 0 1.76788C0 0.908996 0.630157 0.25 1.59476 0.25C2.55967 0.25 3.15063 0.908996 3.17008 1.76788Z" fill="#666D89"/>
<path d="M4.86295 7.5948C4.86295 6.37668 4.82375 5.35829 4.78455 4.47936H7.38342L7.52171 5.83743H7.58066C7.97438 5.19815 8.93929 4.25944 10.5541 4.25944C12.5231 4.25944 14 5.59778 14 8.47341V14.2453H11.0068V8.83312C11.0068 7.57477 10.5736 6.71635 9.49043 6.71635C8.66349 6.71635 8.17162 7.29536 7.95493 7.85449C7.87591 8.05407 7.85615 8.33395 7.85615 8.61351V14.2453H4.86295V7.5948Z" fill="#666D89"/>
</svg>
